<?xml version="1.0"?>
<svg xmlns="http://www.w3.org/2000/svg" xmlns:xlink="http://www.w3.org/1999/xlink" version="1.1" id="Layer_1" x="0px" y="0px" viewBox="0 0 480 480" style="enable-background:new 0 0 480 480;" xml:space="preserve" width="512px" height="512px"><g><g>
	<g>
		<path d="M421.648,74.336L349.664,2.352C348.216,0.896,346.216,0,344,0H96C73.944,0,56,17.944,56,40v400c0,22.056,17.944,40,40,40    h288c22.056,0,40-17.944,40-40V80C424,77.784,423.104,75.784,421.648,74.336z M352,27.312L396.688,72H352V27.312z M408,440    c0,13.232-10.768,24-24,24H96c-13.232,0-24-10.768-24-24V40c0-13.232,10.768-24,24-24h240v64c0,4.424,3.584,8,8,8h64V440z" data-original="#000000" class="active-path" data-old_color="#000000" fill="#FFFFFF"/>
	</g>
</g><g>
	<g>
		<path d="M128,112c-17.648,0-32,14.352-32,32s14.352,32,32,32s32-14.352,32-32S145.648,112,128,112z M128,160    c-8.824,0-16-7.176-16-16c0-8.824,7.176-16,16-16c8.824,0,16,7.176,16,16C144,152.824,136.824,160,128,160z" data-original="#000000" class="active-path" data-old_color="#000000" fill="#FFFFFF"/>
	</g>
</g><g>
	<g>
		<path d="M128,200c-17.648,0-32,14.352-32,32s14.352,32,32,32s32-14.352,32-32S145.648,200,128,200z M128,248    c-8.824,0-16-7.176-16-16c0-8.824,7.176-16,16-16c8.824,0,16,7.176,16,16C144,240.824,136.824,248,128,248z" data-original="#000000" class="active-path" data-old_color="#000000" fill="#FFFFFF"/>
	</g>
</g><g>
	<g>
		<path d="M128,288c-17.648,0-32,14.352-32,32s14.352,32,32,32s32-14.352,32-32S145.648,288,128,288z M128,336    c-8.824,0-16-7.176-16-16c0-8.824,7.176-16,16-16c8.824,0,16,7.176,16,16C144,328.824,136.824,336,128,336z" data-original="#000000" class="active-path" data-old_color="#000000" fill="#FFFFFF"/>
	</g>
</g><g>
	<g>
		<path d="M128,376c-17.648,0-32,14.352-32,32s14.352,32,32,32s32-14.352,32-32S145.648,376,128,376z M128,424    c-8.824,0-16-7.176-16-16c0-8.824,7.176-16,16-16c8.824,0,16,7.176,16,16C144,416.824,136.824,424,128,424z" data-original="#000000" class="active-path" data-old_color="#000000" fill="#FFFFFF"/>
	</g>
</g><g>
	<g>
		<rect x="176" y="152" width="208" height="16" data-original="#000000" class="active-path" data-old_color="#000000" fill="#FFFFFF"/>
	</g>
</g><g>
	<g>
		<rect x="184" y="40" width="112" height="16" data-original="#000000" class="active-path" data-old_color="#000000" fill="#FFFFFF"/>
	</g>
</g><g>
	<g>
		<rect x="160" y="72" width="160" height="16" data-original="#000000" class="active-path" data-old_color="#000000" fill="#FFFFFF"/>
	</g>
</g><g>
	<g>
		<rect x="176" y="240" width="208" height="16" data-original="#000000" class="active-path" data-old_color="#000000" fill="#FFFFFF"/>
	</g>
</g><g>
	<g>
		<rect x="176" y="328" width="208" height="16" data-original="#000000" class="active-path" data-old_color="#000000" fill="#FFFFFF"/>
	</g>
</g><g>
	<g>
		<rect x="176" y="416" width="208" height="16" data-original="#000000" class="active-path" data-old_color="#000000" fill="#FFFFFF"/>
	</g>
</g><g>
	<g>
		<rect x="240" y="120" width="16" height="16" data-original="#000000" class="active-path" data-old_color="#000000" fill="#FFFFFF"/>
	</g>
</g><g>
	<g>
		<rect x="208" y="120" width="16" height="16" data-original="#000000" class="active-path" data-old_color="#000000" fill="#FFFFFF"/>
	</g>
</g><g>
	<g>
		<rect x="176" y="120" width="16" height="16" data-original="#000000" class="active-path" data-old_color="#000000" fill="#FFFFFF"/>
	</g>
</g></g> </svg>
