<?xml version="1.0"?>
<svg xmlns="http://www.w3.org/2000/svg" id="Capa_1" enable-background="new 0 0 465.882 465.882" height="512px" viewBox="0 0 465.882 465.882" width="512px"><g><path d="m232.941 0c-80.273 0-145.588 65.316-145.588 145.588v218.382c0 56.188 45.724 101.912 101.912 101.912s101.912-45.724 101.912-101.912v-145.588c0-48.169-39.184-87.353-87.353-87.353v58.235c16.052 0 29.118 13.066 29.118 29.118v145.588c0 24.085-19.592 43.676-43.676 43.676s-43.676-19.592-43.676-43.676v-218.382c0-48.169 39.184-87.353 87.353-87.353s87.353 39.184 87.353 87.353v262.059h58.235v-262.059c-.002-80.272-65.317-145.588-145.59-145.588z" data-original="#000000" class="active-path" data-old_color="#000000" fill="#585858"/></g> </svg>
