<?xml version="1.0"?>
<svg xmlns="http://www.w3.org/2000/svg" height="512px" viewBox="-81 0 481 481.38775" width="512px" class=""><g><g fill="#1ae5be"><path d="m216.195312 96c-26.511718 0-48-21.492188-48-48s21.488282-48 48-48c26.507813 0 48 21.492188 48 48s-21.492187 48-48 48zm0-80c-17.675781 0-32 14.328125-32 32s14.324219 32 32 32c17.671876 0 32-14.328125 32-32 .042969-8.5-3.3125-16.664062-9.324218-22.675781-6.011719-6.011719-14.175782-9.367188-22.675782-9.324219zm0 0" data-original="#1AE5BE" class="active-path" style="fill:#F78F3A" data-old_color="#1AE5BE"/><path d="m96.195312 325.398438c-3.238281 0-6.15625-1.949219-7.394531-4.9375-1.238281-2.992188-.550781-6.433594 1.734375-8.71875l35.359375-35.355469-35.355469-35.355469c-3.125-3.125-3.125-8.191406 0-11.3125 3.125-3.125 8.191407-3.125 11.3125 0l41.011719 41.011719c3.125 3.121093 3.125 8.1875 0 11.3125l-41.011719 41.011719c-1.496093 1.503906-3.535156 2.347656-5.65625 2.34375zm0 0" data-original="#1AE5BE" class="active-path" style="fill:#F78F3A" data-old_color="#1AE5BE"/><path d="m137.195312 284.386719h-129c-4.417968 0-8-3.582031-8-8s3.582032-8 8-8h129c4.417969 0 8 3.582031 8 8s-3.582031 8-8 8zm0 0" data-original="#1AE5BE" class="active-path" style="fill:#F78F3A" data-old_color="#1AE5BE"/></g><path d="m317.59375 119.609375c-1.421875-2.65625-4.21875-4.289063-7.230469-4.222656h-198.515625c-4.421875 0-8 3.582031-8 8v81.828125c0 4.417968 3.578125 8 8 8 4.417969 0 8-3.582032 8-8v-73.828125h136.082032l-92.898438 27.8125c-3.386719 1.015625-5.707031 4.128906-5.707031 7.664062v255.042969h-37.476563v-70.636719c0-4.417969-3.582031-8-8-8-4.421875 0-8 3.582031-8 8v78.636719c0 4.421875 3.578125 8 8 8h45.476563v35.480469c0 2.527343 1.195312 4.910156 3.222656 6.417969 2.03125 1.511718 4.65625 1.972656 7.078125 1.246093l145.214844-43.480469c3.386718-1.011718 5.707031-4.128906 5.707031-7.664062v-306.335938c.03125-1.378906-.296875-2.742187-.945313-3.960937zm-15.050781 304.34375-129.21875 38.6875v-289.820313l129.21875-38.6875zm0 0" fill="#0635c9" data-original="#0635C9" class="" style="fill:#1E4691" data-old_color="#0635c9"/><path d="m208.195312 316.386719c12.699219 0 23-10.296875 23-23s-10.300781-23-23-23c-12.703124 0-23 10.296875-23 23 .011719 12.695312 10.300782 22.984375 23 23zm0-30c3.863282 0 7 3.132812 7 7 0 3.867187-3.136718 7-7 7-3.867187 0-7-3.132813-7-7 .003907-3.863281 3.132813-6.996094 7-7zm0 0" fill="#0635c9" data-original="#0635C9" class="" style="fill:#1E4691" data-old_color="#0635c9"/><path d="m208.3125 58.257812 11.132812 7.128907c3.714844 2.316406 8.605469 1.214843 10.96875-2.472657 2.363282-3.6875 1.320313-8.589843-2.339843-11l-7.445313-4.773437v-17.792969c0-4.421875-3.582031-8-8-8-4.417968 0-8 3.578125-8 8v22.171875c0 2.726563 1.386719 5.265625 3.683594 6.738281zm0 0" fill="#0635c9" data-original="#0635C9" class="" style="fill:#1E4691" data-old_color="#0635c9"/></g> </svg>
