<?xml version="1.0"?>
<svg xmlns="http://www.w3.org/2000/svg" height="512px" viewBox="-81 0 481 481.38775" width="512px" class=""><g><g fill="#1ae5be"><path d="m216.195312 96c-26.511718 0-48-21.492188-48-48s21.488282-48 48-48c26.507813 0 48 21.492188 48 48s-21.492187 48-48 48zm0-80c-14.96875 0-27.9375 10.371094-31.222656 24.972656-3.285156 14.601563 3.988282 29.53125 17.511719 35.941406 13.523437 6.414063 29.6875 2.59375 38.910156-9.195312 7.539063-9.636719 8.925781-22.734375 3.5625-33.734375-5.359375-11.003906-16.523437-17.984375-28.761719-17.984375zm0 0" data-original="#1AE5BE" class="active-path" style="fill:#F78F3A" data-old_color="#1AE5BE"/><path d="m49.207031 325.398438c-2.125.003906-4.160156-.839844-5.65625-2.34375l-41.011719-41.011719c-3.125-3.125-3.125-8.191407 0-11.3125l41.011719-41.011719c3.121094-3.125 8.1875-3.125 11.3125 0 3.125 3.121094 3.125 8.1875 0 11.3125l-35.355469 35.355469 35.355469 35.355469c2.289063 2.285156 2.972657 5.726562 1.734375 8.71875-1.238281 2.988281-4.15625 4.9375-7.390625 4.9375zm0 0" data-original="#1AE5BE" class="active-path" style="fill:#F78F3A" data-old_color="#1AE5BE"/><path d="m137.207031 284.386719h-129c-4.417969 0-8-3.582031-8-8s3.582031-8 8-8h129c4.417969 0 8 3.582031 8 8s-3.582031 8-8 8zm0 0" data-original="#1AE5BE" class="active-path" style="fill:#F78F3A" data-old_color="#1AE5BE"/></g><path d="m317.59375 119.605469c-1.125-2.097657-3.125-3.585938-5.460938-4.058594-.582031-.121094-1.175781-.175781-1.769531-.160156h-198.515625c-4.417968 0-8 3.582031-8 8v81.828125c0 4.417968 3.582032 8 8 8 4.417969 0 8-3.582032 8-8v-73.828125h136.082032l-92.902344 27.8125c-3.382813 1.015625-5.703125 4.128906-5.703125 7.664062v255.042969h-37.476563v-70.636719c0-4.417969-3.582031-8-8-8-4.417968 0-8 3.582031-8 8v78.636719c0 4.421875 3.582032 8 8 8h45.476563v35.480469c0 2.527343 1.195312 4.910156 3.222656 6.417969 2.03125 1.511718 4.65625 1.972656 7.078125 1.246093l145.214844-43.480469c3.386718-1.011718 5.707031-4.128906 5.707031-7.664062v-306.335938c.03125-1.378906-.296875-2.746093-.949219-3.964843zm-15.050781 304.347656-129.21875 38.6875v-289.820313l129.21875-38.6875zm0 0" fill="#0635c9" data-original="#0635C9" class="" data-old_color="#0635c9" style="fill:#1E4691"/><path d="m208.195312 316.386719c12.703126 0 23-10.296875 23-23s-10.296874-23-23-23c-12.703124 0-23 10.296875-23 23 .011719 12.695312 10.300782 22.984375 23 23zm0-30c3.863282 0 7 3.132812 7 7 0 3.867187-3.136718 7-7 7-3.867187 0-7-3.132813-7-7 .003907-3.863281 3.132813-6.996094 7-7zm0 0" fill="#0635c9" data-original="#0635C9" class="" data-old_color="#0635c9" style="fill:#1E4691"/><path d="m204.3125 44.085938 7.449219 4.773437v17.800781c0 4.417969 3.582031 8 8 8s8-3.582031 8-8v-22.179687c0-2.726563-1.390625-5.265625-3.6875-6.738281l-11.128907-7.132813c-3.722656-2.382813-8.671874-1.296875-11.054687 2.421875-2.382813 3.722656-1.300781 8.671875 2.421875 11.054688zm0 0" fill="#0635c9" data-original="#0635C9" class="" data-old_color="#0635c9" style="fill:#1E4691"/></g> </svg>
