<?xml version="1.0"?>
<svg xmlns="http://www.w3.org/2000/svg" height="512px" viewBox="0 0 512 512" width="512px" class=""><g><g id="Filter"><path d="m440 18-152 240v240l-64-48v-192l-152-240z" fill="#57a4ff" data-original="#57A4FF" class="" style="fill:#828282" data-old_color="#57a4ff"/><g fill="#004fac"><path d="m447.009 12.143a8 8 0 0 0 -7.009-4.143h-368a8 8 0 0 0 -6.759 12.28l150.759 238.04v189.68a8 8 0 0 0 3.2 6.4l64 48a8 8 0 0 0 12.8-6.4v-237.68l150.759-238.04a8 8 0 0 0 .25-8.137zm-165.768 239.577a8 8 0 0 0 -1.241 4.28v224l-48-36v-188a8 8 0 0 0 -1.241-4.28l-144.223-227.72h338.928z" data-original="#004FAC" class="active-path" data-old_color="#004FAC" style="fill:#585858"/><path d="m128 56h80a8 8 0 0 0 0-16h-80a8 8 0 0 0 0 16z" data-original="#004FAC" class="active-path" data-old_color="#004FAC" style="fill:#585858"/><path d="m232 56h8a8 8 0 0 0 0-16h-8a8 8 0 0 0 0 16z" data-original="#004FAC" class="active-path" data-old_color="#004FAC" style="fill:#585858"/></g></g></g> </svg>
