<?xml version="1.0"?>
<svg xmlns="http://www.w3.org/2000/svg" height="512px" viewBox="0 0 464 464" width="512px" class=""><g><path d="m8 416h32c4.417969 0 8 3.582031 8 8v32c0 4.417969-3.582031 8-8 8h-32c-4.417969 0-8-3.582031-8-8v-32c0-4.417969 3.582031-8 8-8zm0 0" fill="#ff9811" data-original="#FF9811" class="active-path" style="fill:#1E4691" data-old_color="#ff9811"/><path d="m424 0h32c4.417969 0 8 3.582031 8 8v32c0 4.417969-3.582031 8-8 8h-32c-4.417969 0-8-3.582031-8-8v-32c0-4.417969 3.582031-8 8-8zm0 0" fill="#ff9811" data-original="#FF9811" class="active-path" style="fill:#1E4691" data-old_color="#ff9811"/><path d="m424 416h32c4.417969 0 8 3.582031 8 8v32c0 4.417969-3.582031 8-8 8h-32c-4.417969 0-8-3.582031-8-8v-32c0-4.417969 3.582031-8 8-8zm0 0" fill="#ff6243" data-original="#FF6243" class="" style="fill:#1E4691" data-old_color="#ff6243"/><path d="m8 0h32c4.417969 0 8 3.582031 8 8v32c0 4.417969-3.582031 8-8 8h-32c-4.417969 0-8-3.582031-8-8v-32c0-4.417969 3.582031-8 8-8zm0 0" fill="#ff6243" data-original="#FF6243" class="" style="fill:#1E4691" data-old_color="#ff6243"/><path d="m328 344h32v24h-32zm0 0" fill="#898890" data-original="#898890" class="" style="fill:#828282" data-old_color="#898890"/><path d="m104 344h32v24h-32zm0 0" fill="#898890" data-original="#898890" class="" style="fill:#828282" data-old_color="#898890"/><path d="m104 256h32v24h-32zm0 0" fill="#898890" data-original="#898890" class="" style="fill:#828282" data-old_color="#898890"/><path d="m328 256h32v24h-32zm0 0" fill="#898890" data-original="#898890" class="" style="fill:#828282" data-old_color="#898890"/><path d="m328 168h32v24h-32zm0 0" fill="#898890" data-original="#898890" class="" style="fill:#828282" data-old_color="#898890"/><path d="m104 168h32v24h-32zm0 0" fill="#898890" data-original="#898890" class="" style="fill:#828282" data-old_color="#898890"/><path d="m328 344h-240c-4.417969 0-8-3.582031-8-8v-48c0-4.417969 3.582031-8 8-8h288c4.417969 0 8 3.582031 8 8v48c0 4.417969-3.582031 8-8 8zm0 0" fill="#00ccb3" data-original="#00CCB3" class="" style="fill:#1E4691" data-old_color="#00ccb3"/><path d="m328 256h-240c-4.417969 0-8-3.582031-8-8v-48c0-4.417969 3.582031-8 8-8h288c4.417969 0 8 3.582031 8 8v48c0 4.417969-3.582031 8-8 8zm0 0" fill="#00ccb3" data-original="#00CCB3" class="" style="fill:#1E4691" data-old_color="#00ccb3"/><path d="m328 168h-240c-4.417969 0-8-3.582031-8-8v-48c0-4.417969 3.582031-8 8-8h288c4.417969 0 8 3.582031 8 8v48c0 4.417969-3.582031 8-8 8zm0 0" fill="#00ccb3" data-original="#00CCB3" class="" style="fill:#1E4691" data-old_color="#00ccb3"/><g fill="#009986"><path d="m104 304h16v16h-16zm0 0" data-original="#009986" class="" style="fill:#D9D9D9" data-old_color="#009986"/><path d="m136 304h16v16h-16zm0 0" data-original="#009986" class="" style="fill:#D9D9D9" data-old_color="#009986"/><path d="m168 304h16v16h-16zm0 0" data-original="#009986" class="" style="fill:#D9D9D9" data-old_color="#009986"/><path d="m280 296h16v32h-16zm0 0" data-original="#009986" class="" style="fill:#D9D9D9" data-old_color="#009986"/><path d="m312 296h16v32h-16zm0 0" data-original="#009986" class="" style="fill:#D9D9D9" data-old_color="#009986"/><path d="m344 296h16v32h-16zm0 0" data-original="#009986" class="" style="fill:#D9D9D9" data-old_color="#009986"/><path d="m104 216h16v16h-16zm0 0" data-original="#009986" class="" style="fill:#D9D9D9" data-old_color="#009986"/><path d="m136 216h16v16h-16zm0 0" data-original="#009986" class="" style="fill:#D9D9D9" data-old_color="#009986"/><path d="m168 216h16v16h-16zm0 0" data-original="#009986" class="" style="fill:#D9D9D9" data-old_color="#009986"/><path d="m280 208h16v32h-16zm0 0" data-original="#009986" class="" style="fill:#D9D9D9" data-old_color="#009986"/><path d="m312 208h16v32h-16zm0 0" data-original="#009986" class="" style="fill:#D9D9D9" data-old_color="#009986"/><path d="m344 208h16v32h-16zm0 0" data-original="#009986" class="" style="fill:#D9D9D9" data-old_color="#009986"/><path d="m104 128h16v16h-16zm0 0" data-original="#009986" class="" style="fill:#D9D9D9" data-old_color="#009986"/><path d="m136 128h16v16h-16zm0 0" data-original="#009986" class="" style="fill:#D9D9D9" data-old_color="#009986"/><path d="m168 128h16v16h-16zm0 0" data-original="#009986" class="" style="fill:#D9D9D9" data-old_color="#009986"/><path d="m280 120h16v32h-16zm0 0" data-original="#009986" class="" style="fill:#D9D9D9" data-old_color="#009986"/><path d="m312 120h16v32h-16zm0 0" data-original="#009986" class="" style="fill:#D9D9D9" data-old_color="#009986"/><path d="m344 120h16v32h-16zm0 0" data-original="#009986" class="" style="fill:#D9D9D9" data-old_color="#009986"/></g><path d="m301.65625 85.65625-11.3125-11.3125 64-64c1.5-1.5 3.535156-2.34375 5.65625-2.34375h32v16h-28.6875zm0 0" fill="#ee8700" data-original="#EE8700" class="" style="fill:#F78F3A" data-old_color="#ee8700"/><path d="m162.34375 85.65625-61.65625-61.65625h-28.6875v-16h32c2.121094 0 4.15625.84375 5.65625 2.34375l64 64zm0 0" fill="#ee8700" data-original="#EE8700" class="" style="fill:#F78F3A" data-old_color="#ee8700"/><path d="m392 456h-32c-2.121094 0-4.15625-.84375-5.65625-2.34375l-64-64 11.3125-11.3125 61.65625 61.65625h28.6875zm0 0" fill="#ee8700" data-original="#EE8700" class="" style="fill:#F78F3A" data-old_color="#ee8700"/><path d="m104 456h-32v-16h28.6875l61.65625-61.65625 11.3125 11.3125-64 64c-1.5 1.5-3.535156 2.34375-5.65625 2.34375zm0 0" fill="#ee8700" data-original="#EE8700" class="" style="fill:#F78F3A" data-old_color="#ee8700"/><path d="m424 208h16v16h-16zm0 0" fill="#ee8700" data-original="#EE8700" class="" style="fill:#F78F3A" data-old_color="#ee8700"/><path d="m424 176h16v16h-16zm0 0" fill="#ee8700" data-original="#EE8700" class="" style="fill:#F78F3A" data-old_color="#ee8700"/><path d="m424 240h16v16h-16zm0 0" fill="#ee8700" data-original="#EE8700" class="" style="fill:#F78F3A" data-old_color="#ee8700"/><path d="m424 272h16v16h-16zm0 0" fill="#ee8700" data-original="#EE8700" class="" style="fill:#F78F3A" data-old_color="#ee8700"/><path d="m24 208h16v16h-16zm0 0" fill="#ee8700" data-original="#EE8700" class="" style="fill:#F78F3A" data-old_color="#ee8700"/><path d="m24 176h16v16h-16zm0 0" fill="#ee8700" data-original="#EE8700" class="" style="fill:#F78F3A" data-old_color="#ee8700"/><path d="m24 240h16v16h-16zm0 0" fill="#ee8700" data-original="#EE8700" class="" style="fill:#F78F3A" data-old_color="#ee8700"/><path d="m24 272h16v16h-16zm0 0" fill="#ee8700" data-original="#EE8700" class="" style="fill:#F78F3A" data-old_color="#ee8700"/></g> </svg>
